<?xml version="1.0" encoding="UTF-8" standalone="no"?>
<!DOCTYPE svg PUBLIC "-//W3C//DTD SVG 1.1//EN"
 "http://www.w3.org/Graphics/SVG/1.1/DTD/svg11.dtd">
<!-- Generated by graphviz version 2.40.1 (20161225.0304)
 -->
<!-- Title: MLP Pages: 1 -->
<svg width="686pt" height="206pt"
 viewBox="0.00 0.00 686.00 206.00" xmlns="http://www.w3.org/2000/svg" xmlns:xlink="http://www.w3.org/1999/xlink">
<g id="graph0" class="graph" transform="scale(1 1) rotate(0) translate(4 202)">
<title>MLP</title>
<polygon fill="#ffffff" stroke="transparent" points="-4,4 -4,-202 682,-202 682,4 -4,4"/>
<!-- FC (op#0)\n input0 X\n input1 W1\n input2 B1\n output0 H1 -->
<g id="node1" class="node">
<title>FC (op#0)\n input0 X\n input1 W1\n input2 B1\n output0 H1</title>
<g id="a_node1"><a xlink:href="javascript:alert('')" xlink:title="FC (op#0)\n input0 X\n input1 W1\n input2 B1\n output0 H1">
<polygon fill="#0f9d58" stroke="#0f9d58" points="173,-113.5 90,-113.5 90,-30.5 173,-30.5 173,-113.5"/>
<text text-anchor="middle" x="131.5" y="-98.3" font-family="Times,serif" font-size="14.00" fill="#ffffff">FC (op#0)</text>
<text text-anchor="middle" x="131.5" y="-83.3" font-family="Times,serif" font-size="14.00" fill="#ffffff"> input0 X</text>
<text text-anchor="middle" x="131.5" y="-68.3" font-family="Times,serif" font-size="14.00" fill="#ffffff"> input1 W1</text>
<text text-anchor="middle" x="131.5" y="-53.3" font-family="Times,serif" font-size="14.00" fill="#ffffff"> input2 B1</text>
<text text-anchor="middle" x="131.5" y="-38.3" font-family="Times,serif" font-size="14.00" fill="#ffffff"> output0 H1</text>
</a>
</g>
</g>
<!-- H10 -->
<g id="node2" class="node">
<title>H10</title>
<polygon fill="none" stroke="#000000" points="263,-64.5442 263,-79.4558 247.1838,-90 224.8162,-90 209,-79.4558 209,-64.5442 224.8162,-54 247.1838,-54 263,-64.5442"/>
<text text-anchor="middle" x="236" y="-68.3" font-family="Times,serif" font-size="14.00" fill="#000000">H1</text>
</g>
<!-- FC (op#0)\n input0 X\n input1 W1\n input2 B1\n output0 H1&#45;&gt;H10 -->
<g id="edge1" class="edge">
<title>FC (op#0)\n input0 X\n input1 W1\n input2 B1\n output0 H1&#45;&gt;H10</title>
<path fill="none" stroke="#000000" d="M173.1014,-72C181.5857,-72 190.4611,-72 198.7808,-72"/>
<polygon fill="#000000" stroke="#000000" points="198.9507,-75.5001 208.9506,-72 198.9506,-68.5001 198.9507,-75.5001"/>
</g>
<!-- Relu (op#1)\n input0 H1\n output0 R1 -->
<g id="node6" class="node">
<title>Relu (op#1)\n input0 H1\n output0 R1</title>
<g id="a_node6"><a xlink:href="javascript:alert('')" xlink:title="Relu (op#1)\n input0 H1\n output0 R1">
<polygon fill="#0f9d58" stroke="#0f9d58" points="383,-98.5 299,-98.5 299,-45.5 383,-45.5 383,-98.5"/>
<text text-anchor="middle" x="341" y="-83.3" font-family="Times,serif" font-size="14.00" fill="#ffffff">Relu (op#1)</text>
<text text-anchor="middle" x="341" y="-68.3" font-family="Times,serif" font-size="14.00" fill="#ffffff"> input0 H1</text>
<text text-anchor="middle" x="341" y="-53.3" font-family="Times,serif" font-size="14.00" fill="#ffffff"> output0 R1</text>
</a>
</g>
</g>
<!-- H10&#45;&gt;Relu (op#1)\n input0 H1\n output0 R1 -->
<g id="edge5" class="edge">
<title>H10&#45;&gt;Relu (op#1)\n input0 H1\n output0 R1</title>
<path fill="none" stroke="#000000" d="M263.0401,-72C270.9868,-72 279.9603,-72 288.9177,-72"/>
<polygon fill="#000000" stroke="#000000" points="288.9683,-75.5001 298.9683,-72 288.9683,-68.5001 288.9683,-75.5001"/>
</g>
<!-- X0 -->
<g id="node3" class="node">
<title>X0</title>
<polygon fill="none" stroke="#000000" points="54,-118.5442 54,-133.4558 38.1838,-144 15.8162,-144 0,-133.4558 0,-118.5442 15.8162,-108 38.1838,-108 54,-118.5442"/>
<text text-anchor="middle" x="27" y="-122.3" font-family="Times,serif" font-size="14.00" fill="#000000">X</text>
</g>
<!-- X0&#45;&gt;FC (op#0)\n input0 X\n input1 W1\n input2 B1\n output0 H1 -->
<g id="edge2" class="edge">
<title>X0&#45;&gt;FC (op#0)\n input0 X\n input1 W1\n input2 B1\n output0 H1</title>
<path fill="none" stroke="#000000" d="M48.6525,-114.8112C57.9926,-109.9847 69.3467,-104.1175 80.6161,-98.2941"/>
<polygon fill="#000000" stroke="#000000" points="82.3184,-101.3541 89.5956,-93.6539 79.1049,-95.1354 82.3184,-101.3541"/>
</g>
<!-- W10 -->
<g id="node4" class="node">
<title>W10</title>
<polygon fill="none" stroke="#000000" points="54,-64.5442 54,-79.4558 38.1838,-90 15.8162,-90 0,-79.4558 0,-64.5442 15.8162,-54 38.1838,-54 54,-64.5442"/>
<text text-anchor="middle" x="27" y="-68.3" font-family="Times,serif" font-size="14.00" fill="#000000">W1</text>
</g>
<!-- W10&#45;&gt;FC (op#0)\n input0 X\n input1 W1\n input2 B1\n output0 H1 -->
<g id="edge3" class="edge">
<title>W10&#45;&gt;FC (op#0)\n input0 X\n input1 W1\n input2 B1\n output0 H1</title>
<path fill="none" stroke="#000000" d="M54.1833,-72C62.0072,-72 70.8138,-72 79.6069,-72"/>
<polygon fill="#000000" stroke="#000000" points="79.8634,-75.5001 89.8634,-72 79.8633,-68.5001 79.8634,-75.5001"/>
</g>
<!-- B10 -->
<g id="node5" class="node">
<title>B10</title>
<polygon fill="none" stroke="#000000" points="54,-10.5442 54,-25.4558 38.1838,-36 15.8162,-36 0,-25.4558 0,-10.5442 15.8162,0 38.1838,0 54,-10.5442"/>
<text text-anchor="middle" x="27" y="-14.3" font-family="Times,serif" font-size="14.00" fill="#000000">B1</text>
</g>
<!-- B10&#45;&gt;FC (op#0)\n input0 X\n input1 W1\n input2 B1\n output0 H1 -->
<g id="edge4" class="edge">
<title>B10&#45;&gt;FC (op#0)\n input0 X\n input1 W1\n input2 B1\n output0 H1</title>
<path fill="none" stroke="#000000" d="M48.6525,-29.1888C57.9926,-34.0153 69.3467,-39.8825 80.6161,-45.7059"/>
<polygon fill="#000000" stroke="#000000" points="79.1049,-48.8646 89.5956,-50.3461 82.3184,-42.6459 79.1049,-48.8646"/>
</g>
<!-- R10 -->
<g id="node7" class="node">
<title>R10</title>
<polygon fill="none" stroke="#000000" points="473,-64.5442 473,-79.4558 457.1838,-90 434.8162,-90 419,-79.4558 419,-64.5442 434.8162,-54 457.1838,-54 473,-64.5442"/>
<text text-anchor="middle" x="446" y="-68.3" font-family="Times,serif" font-size="14.00" fill="#000000">R1</text>
</g>
<!-- Relu (op#1)\n input0 H1\n output0 R1&#45;&gt;R10 -->
<g id="edge6" class="edge">
<title>Relu (op#1)\n input0 H1\n output0 R1&#45;&gt;R10</title>
<path fill="none" stroke="#000000" d="M383.1025,-72C391.6072,-72 400.491,-72 408.8124,-72"/>
<polygon fill="#000000" stroke="#000000" points="408.9812,-75.5001 418.9812,-72 408.9812,-68.5001 408.9812,-75.5001"/>
</g>
<!-- FC (op#2)\n input0 R1\n input1 W2\n input2 B2\n output0 Y -->
<g id="node8" class="node">
<title>FC (op#2)\n input0 R1\n input1 W2\n input2 B2\n output0 Y</title>
<g id="a_node8"><a xlink:href="javascript:alert('')" xlink:title="FC (op#2)\n input0 R1\n input1 W2\n input2 B2\n output0 Y">
<polygon fill="#0f9d58" stroke="#0f9d58" points="588,-167.5 509,-167.5 509,-84.5 588,-84.5 588,-167.5"/>
<text text-anchor="middle" x="548.5" y="-152.3" font-family="Times,serif" font-size="14.00" fill="#ffffff">FC (op#2)</text>
<text text-anchor="middle" x="548.5" y="-137.3" font-family="Times,serif" font-size="14.00" fill="#ffffff"> input0 R1</text>
<text text-anchor="middle" x="548.5" y="-122.3" font-family="Times,serif" font-size="14.00" fill="#ffffff"> input1 W2</text>
<text text-anchor="middle" x="548.5" y="-107.3" font-family="Times,serif" font-size="14.00" fill="#ffffff"> input2 B2</text>
<text text-anchor="middle" x="548.5" y="-92.3" font-family="Times,serif" font-size="14.00" fill="#ffffff"> output0 Y</text>
</a>
</g>
</g>
<!-- R10&#45;&gt;FC (op#2)\n input0 R1\n input1 W2\n input2 B2\n output0 Y -->
<g id="edge7" class="edge">
<title>R10&#45;&gt;FC (op#2)\n input0 R1\n input1 W2\n input2 B2\n output0 Y</title>
<path fill="none" stroke="#000000" d="M467.7376,-83.452C477.197,-88.4355 488.6913,-94.491 500.0059,-100.4519"/>
<polygon fill="#000000" stroke="#000000" points="498.5204,-103.6253 508.9991,-105.1898 501.7832,-97.4321 498.5204,-103.6253"/>
</g>
<!-- Y0 -->
<g id="node9" class="node">
<title>Y0</title>
<polygon fill="none" stroke="#000000" points="678,-118.5442 678,-133.4558 662.1838,-144 639.8162,-144 624,-133.4558 624,-118.5442 639.8162,-108 662.1838,-108 678,-118.5442"/>
<text text-anchor="middle" x="651" y="-122.3" font-family="Times,serif" font-size="14.00" fill="#000000">Y</text>
</g>
<!-- FC (op#2)\n input0 R1\n input1 W2\n input2 B2\n output0 Y&#45;&gt;Y0 -->
<g id="edge8" class="edge">
<title>FC (op#2)\n input0 R1\n input1 W2\n input2 B2\n output0 Y&#45;&gt;Y0</title>
<path fill="none" stroke="#000000" d="M588.1292,-126C596.5266,-126 605.3634,-126 613.672,-126"/>
<polygon fill="#000000" stroke="#000000" points="613.8409,-129.5001 623.8409,-126 613.8408,-122.5001 613.8409,-129.5001"/>
</g>
<!-- W20 -->
<g id="node10" class="node">
<title>W20</title>
<polygon fill="none" stroke="#000000" points="473,-172.5442 473,-187.4558 457.1838,-198 434.8162,-198 419,-187.4558 419,-172.5442 434.8162,-162 457.1838,-162 473,-172.5442"/>
<text text-anchor="middle" x="446" y="-176.3" font-family="Times,serif" font-size="14.00" fill="#000000">W2</text>
</g>
<!-- W20&#45;&gt;FC (op#2)\n input0 R1\n input1 W2\n input2 B2\n output0 Y -->
<g id="edge9" class="edge">
<title>W20&#45;&gt;FC (op#2)\n input0 R1\n input1 W2\n input2 B2\n output0 Y</title>
<path fill="none" stroke="#000000" d="M467.7376,-168.548C477.197,-163.5645 488.6913,-157.509 500.0059,-151.5481"/>
<polygon fill="#000000" stroke="#000000" points="501.7832,-154.5679 508.9991,-146.8102 498.5204,-148.3747 501.7832,-154.5679"/>
</g>
<!-- B20 -->
<g id="node11" class="node">
<title>B20</title>
<polygon fill="none" stroke="#000000" points="473,-118.5442 473,-133.4558 457.1838,-144 434.8162,-144 419,-133.4558 419,-118.5442 434.8162,-108 457.1838,-108 473,-118.5442"/>
<text text-anchor="middle" x="446" y="-122.3" font-family="Times,serif" font-size="14.00" fill="#000000">B2</text>
</g>
<!-- B20&#45;&gt;FC (op#2)\n input0 R1\n input1 W2\n input2 B2\n output0 Y -->
<g id="edge10" class="edge">
<title>B20&#45;&gt;FC (op#2)\n input0 R1\n input1 W2\n input2 B2\n output0 Y</title>
<path fill="none" stroke="#000000" d="M473.199,-126C481.0426,-126 489.8582,-126 498.6204,-126"/>
<polygon fill="#000000" stroke="#000000" points="498.8204,-129.5001 508.8204,-126 498.8204,-122.5001 498.8204,-129.5001"/>
</g>
</g>
</svg>
