<?xml version="1.0" encoding="UTF-8" standalone="no"?>
<!DOCTYPE svg PUBLIC "-//W3C//DTD SVG 1.1//EN"
 "http://www.w3.org/Graphics/SVG/1.1/DTD/svg11.dtd">
<!-- Generated by graphviz version 2.40.1 (20161225.0304)
 -->
<!-- Title: MLP Pages: 1 -->
<svg width="2840pt" height="476pt"
 viewBox="0.00 0.00 2840.00 476.00" xmlns="http://www.w3.org/2000/svg" xmlns:xlink="http://www.w3.org/1999/xlink">
<g id="graph0" class="graph" transform="scale(1 1) rotate(0) translate(4 472)">
<title>MLP</title>
<polygon fill="#ffffff" stroke="transparent" points="-4,4 -4,-472 2836,-472 2836,4 -4,4"/>
<!-- FC (op#0)\n input0 X\n input1 W1\n input2 B1\n output0 O1 -->
<g id="node1" class="node">
<title>FC (op#0)\n input0 X\n input1 W1\n input2 B1\n output0 O1</title>
<g id="a_node1"><a xlink:href="javascript:alert('')" xlink:title="FC (op#0)\n input0 X\n input1 W1\n input2 B1\n output0 O1">
<polygon fill="#0f9d58" stroke="#0f9d58" points="173,-113.5 90,-113.5 90,-30.5 173,-30.5 173,-113.5"/>
<text text-anchor="middle" x="131.5" y="-98.3" font-family="Times,serif" font-size="14.00" fill="#ffffff">FC (op#0)</text>
<text text-anchor="middle" x="131.5" y="-83.3" font-family="Times,serif" font-size="14.00" fill="#ffffff"> input0 X</text>
<text text-anchor="middle" x="131.5" y="-68.3" font-family="Times,serif" font-size="14.00" fill="#ffffff"> input1 W1</text>
<text text-anchor="middle" x="131.5" y="-53.3" font-family="Times,serif" font-size="14.00" fill="#ffffff"> input2 B1</text>
<text text-anchor="middle" x="131.5" y="-38.3" font-family="Times,serif" font-size="14.00" fill="#ffffff"> output0 O1</text>
</a>
</g>
</g>
<!-- O10 -->
<g id="node2" class="node">
<title>O10</title>
<polygon fill="none" stroke="#000000" points="263,-64.5442 263,-79.4558 247.1838,-90 224.8162,-90 209,-79.4558 209,-64.5442 224.8162,-54 247.1838,-54 263,-64.5442"/>
<text text-anchor="middle" x="236" y="-68.3" font-family="Times,serif" font-size="14.00" fill="#000000">O1</text>
</g>
<!-- FC (op#0)\n input0 X\n input1 W1\n input2 B1\n output0 O1&#45;&gt;O10 -->
<g id="edge1" class="edge">
<title>FC (op#0)\n input0 X\n input1 W1\n input2 B1\n output0 O1&#45;&gt;O10</title>
<path fill="none" stroke="#000000" d="M173.1014,-72C181.5857,-72 190.4611,-72 198.7808,-72"/>
<polygon fill="#000000" stroke="#000000" points="198.9507,-75.5001 208.9506,-72 198.9506,-68.5001 198.9507,-75.5001"/>
</g>
<!-- ReLU (op#1)\n input0 O1\n output0 R1 -->
<g id="node6" class="node">
<title>ReLU (op#1)\n input0 O1\n output0 R1</title>
<g id="a_node6"><a xlink:href="javascript:alert('')" xlink:title="ReLU (op#1)\n input0 O1\n output0 R1">
<polygon fill="#0f9d58" stroke="#0f9d58" points="391,-98.5 299,-98.5 299,-45.5 391,-45.5 391,-98.5"/>
<text text-anchor="middle" x="345" y="-83.3" font-family="Times,serif" font-size="14.00" fill="#ffffff">ReLU (op#1)</text>
<text text-anchor="middle" x="345" y="-68.3" font-family="Times,serif" font-size="14.00" fill="#ffffff"> input0 O1</text>
<text text-anchor="middle" x="345" y="-53.3" font-family="Times,serif" font-size="14.00" fill="#ffffff"> output0 R1</text>
</a>
</g>
</g>
<!-- O10&#45;&gt;ReLU (op#1)\n input0 O1\n output0 R1 -->
<g id="edge5" class="edge">
<title>O10&#45;&gt;ReLU (op#1)\n input0 O1\n output0 R1</title>
<path fill="none" stroke="#000000" d="M263.2241,-72C270.9289,-72 279.6135,-72 288.3716,-72"/>
<polygon fill="#000000" stroke="#000000" points="288.6322,-75.5001 298.6322,-72 288.6322,-68.5001 288.6322,-75.5001"/>
</g>
<!-- X0 -->
<g id="node3" class="node">
<title>X0</title>
<polygon fill="none" stroke="#000000" points="54,-118.5442 54,-133.4558 38.1838,-144 15.8162,-144 0,-133.4558 0,-118.5442 15.8162,-108 38.1838,-108 54,-118.5442"/>
<text text-anchor="middle" x="27" y="-122.3" font-family="Times,serif" font-size="14.00" fill="#000000">X</text>
</g>
<!-- X0&#45;&gt;FC (op#0)\n input0 X\n input1 W1\n input2 B1\n output0 O1 -->
<g id="edge2" class="edge">
<title>X0&#45;&gt;FC (op#0)\n input0 X\n input1 W1\n input2 B1\n output0 O1</title>
<path fill="none" stroke="#000000" d="M48.6525,-114.8112C57.9926,-109.9847 69.3467,-104.1175 80.6161,-98.2941"/>
<polygon fill="#000000" stroke="#000000" points="82.3184,-101.3541 89.5956,-93.6539 79.1049,-95.1354 82.3184,-101.3541"/>
</g>
<!-- W10 -->
<g id="node4" class="node">
<title>W10</title>
<polygon fill="none" stroke="#000000" points="54,-64.5442 54,-79.4558 38.1838,-90 15.8162,-90 0,-79.4558 0,-64.5442 15.8162,-54 38.1838,-54 54,-64.5442"/>
<text text-anchor="middle" x="27" y="-68.3" font-family="Times,serif" font-size="14.00" fill="#000000">W1</text>
</g>
<!-- W10&#45;&gt;FC (op#0)\n input0 X\n input1 W1\n input2 B1\n output0 O1 -->
<g id="edge3" class="edge">
<title>W10&#45;&gt;FC (op#0)\n input0 X\n input1 W1\n input2 B1\n output0 O1</title>
<path fill="none" stroke="#000000" d="M54.1833,-72C62.0072,-72 70.8138,-72 79.6069,-72"/>
<polygon fill="#000000" stroke="#000000" points="79.8634,-75.5001 89.8634,-72 79.8633,-68.5001 79.8634,-75.5001"/>
</g>
<!-- B10 -->
<g id="node5" class="node">
<title>B10</title>
<polygon fill="none" stroke="#000000" points="54,-10.5442 54,-25.4558 38.1838,-36 15.8162,-36 0,-25.4558 0,-10.5442 15.8162,0 38.1838,0 54,-10.5442"/>
<text text-anchor="middle" x="27" y="-14.3" font-family="Times,serif" font-size="14.00" fill="#000000">B1</text>
</g>
<!-- B10&#45;&gt;FC (op#0)\n input0 X\n input1 W1\n input2 B1\n output0 O1 -->
<g id="edge4" class="edge">
<title>B10&#45;&gt;FC (op#0)\n input0 X\n input1 W1\n input2 B1\n output0 O1</title>
<path fill="none" stroke="#000000" d="M48.6525,-29.1888C57.9926,-34.0153 69.3467,-39.8825 80.6161,-45.7059"/>
<polygon fill="#000000" stroke="#000000" points="79.1049,-48.8646 89.5956,-50.3461 82.3184,-42.6459 79.1049,-48.8646"/>
</g>
<!-- R10 -->
<g id="node7" class="node">
<title>R10</title>
<polygon fill="none" stroke="#000000" points="481,-64.5442 481,-79.4558 465.1838,-90 442.8162,-90 427,-79.4558 427,-64.5442 442.8162,-54 465.1838,-54 481,-64.5442"/>
<text text-anchor="middle" x="454" y="-68.3" font-family="Times,serif" font-size="14.00" fill="#000000">R1</text>
</g>
<!-- ReLU (op#1)\n input0 O1\n output0 R1&#45;&gt;R10 -->
<g id="edge6" class="edge">
<title>ReLU (op#1)\n input0 O1\n output0 R1&#45;&gt;R10</title>
<path fill="none" stroke="#000000" d="M391.2258,-72C399.7933,-72 408.6401,-72 416.8926,-72"/>
<polygon fill="#000000" stroke="#000000" points="416.9621,-75.5001 426.9621,-72 416.9621,-68.5001 416.9621,-75.5001"/>
</g>
<!-- FC (op#2)\n input0 R1\n input1 W2\n input2 B2\n output0 O2 -->
<g id="node8" class="node">
<title>FC (op#2)\n input0 R1\n input1 W2\n input2 B2\n output0 O2</title>
<g id="a_node8"><a xlink:href="javascript:alert('')" xlink:title="FC (op#2)\n input0 R1\n input1 W2\n input2 B2\n output0 O2">
<polygon fill="#0f9d58" stroke="#0f9d58" points="600,-167.5 517,-167.5 517,-84.5 600,-84.5 600,-167.5"/>
<text text-anchor="middle" x="558.5" y="-152.3" font-family="Times,serif" font-size="14.00" fill="#ffffff">FC (op#2)</text>
<text text-anchor="middle" x="558.5" y="-137.3" font-family="Times,serif" font-size="14.00" fill="#ffffff"> input0 R1</text>
<text text-anchor="middle" x="558.5" y="-122.3" font-family="Times,serif" font-size="14.00" fill="#ffffff"> input1 W2</text>
<text text-anchor="middle" x="558.5" y="-107.3" font-family="Times,serif" font-size="14.00" fill="#ffffff"> input2 B2</text>
<text text-anchor="middle" x="558.5" y="-92.3" font-family="Times,serif" font-size="14.00" fill="#ffffff"> output0 O2</text>
</a>
</g>
</g>
<!-- R10&#45;&gt;FC (op#2)\n input0 R1\n input1 W2\n input2 B2\n output0 O2 -->
<g id="edge7" class="edge">
<title>R10&#45;&gt;FC (op#2)\n input0 R1\n input1 W2\n input2 B2\n output0 O2</title>
<path fill="none" stroke="#000000" d="M475.6525,-83.1888C484.9926,-88.0153 496.3467,-93.8825 507.6161,-99.7059"/>
<polygon fill="#000000" stroke="#000000" points="506.1049,-102.8646 516.5956,-104.3461 509.3184,-96.6459 506.1049,-102.8646"/>
</g>
<!-- O20 -->
<g id="node9" class="node">
<title>O20</title>
<polygon fill="none" stroke="#000000" points="690,-118.5442 690,-133.4558 674.1838,-144 651.8162,-144 636,-133.4558 636,-118.5442 651.8162,-108 674.1838,-108 690,-118.5442"/>
<text text-anchor="middle" x="663" y="-122.3" font-family="Times,serif" font-size="14.00" fill="#000000">O2</text>
</g>
<!-- FC (op#2)\n input0 R1\n input1 W2\n input2 B2\n output0 O2&#45;&gt;O20 -->
<g id="edge8" class="edge">
<title>FC (op#2)\n input0 R1\n input1 W2\n input2 B2\n output0 O2&#45;&gt;O20</title>
<path fill="none" stroke="#000000" d="M600.1014,-126C608.5857,-126 617.4611,-126 625.7808,-126"/>
<polygon fill="#000000" stroke="#000000" points="625.9507,-129.5001 635.9506,-126 625.9506,-122.5001 625.9507,-129.5001"/>
</g>
<!-- ReLU (op#3)\n input0 O2\n output0 R2 -->
<g id="node12" class="node">
<title>ReLU (op#3)\n input0 O2\n output0 R2</title>
<g id="a_node12"><a xlink:href="javascript:alert('')" xlink:title="ReLU (op#3)\n input0 O2\n output0 R2">
<polygon fill="#0f9d58" stroke="#0f9d58" points="818,-152.5 726,-152.5 726,-99.5 818,-99.5 818,-152.5"/>
<text text-anchor="middle" x="772" y="-137.3" font-family="Times,serif" font-size="14.00" fill="#ffffff">ReLU (op#3)</text>
<text text-anchor="middle" x="772" y="-122.3" font-family="Times,serif" font-size="14.00" fill="#ffffff"> input0 O2</text>
<text text-anchor="middle" x="772" y="-107.3" font-family="Times,serif" font-size="14.00" fill="#ffffff"> output0 R2</text>
</a>
</g>
</g>
<!-- O20&#45;&gt;ReLU (op#3)\n input0 O2\n output0 R2 -->
<g id="edge11" class="edge">
<title>O20&#45;&gt;ReLU (op#3)\n input0 O2\n output0 R2</title>
<path fill="none" stroke="#000000" d="M690.2241,-126C697.9289,-126 706.6135,-126 715.3716,-126"/>
<polygon fill="#000000" stroke="#000000" points="715.6322,-129.5001 725.6322,-126 715.6322,-122.5001 715.6322,-129.5001"/>
</g>
<!-- W20 -->
<g id="node10" class="node">
<title>W20</title>
<polygon fill="none" stroke="#000000" points="481,-172.5442 481,-187.4558 465.1838,-198 442.8162,-198 427,-187.4558 427,-172.5442 442.8162,-162 465.1838,-162 481,-172.5442"/>
<text text-anchor="middle" x="454" y="-176.3" font-family="Times,serif" font-size="14.00" fill="#000000">W2</text>
</g>
<!-- W20&#45;&gt;FC (op#2)\n input0 R1\n input1 W2\n input2 B2\n output0 O2 -->
<g id="edge9" class="edge">
<title>W20&#45;&gt;FC (op#2)\n input0 R1\n input1 W2\n input2 B2\n output0 O2</title>
<path fill="none" stroke="#000000" d="M475.6525,-168.8112C484.9926,-163.9847 496.3467,-158.1175 507.6161,-152.2941"/>
<polygon fill="#000000" stroke="#000000" points="509.3184,-155.3541 516.5956,-147.6539 506.1049,-149.1354 509.3184,-155.3541"/>
</g>
<!-- B20 -->
<g id="node11" class="node">
<title>B20</title>
<polygon fill="none" stroke="#000000" points="481,-118.5442 481,-133.4558 465.1838,-144 442.8162,-144 427,-133.4558 427,-118.5442 442.8162,-108 465.1838,-108 481,-118.5442"/>
<text text-anchor="middle" x="454" y="-122.3" font-family="Times,serif" font-size="14.00" fill="#000000">B2</text>
</g>
<!-- B20&#45;&gt;FC (op#2)\n input0 R1\n input1 W2\n input2 B2\n output0 O2 -->
<g id="edge10" class="edge">
<title>B20&#45;&gt;FC (op#2)\n input0 R1\n input1 W2\n input2 B2\n output0 O2</title>
<path fill="none" stroke="#000000" d="M481.1833,-126C489.0072,-126 497.8138,-126 506.6069,-126"/>
<polygon fill="#000000" stroke="#000000" points="506.8634,-129.5001 516.8634,-126 506.8633,-122.5001 506.8634,-129.5001"/>
</g>
<!-- R20 -->
<g id="node13" class="node">
<title>R20</title>
<polygon fill="none" stroke="#000000" points="908,-118.5442 908,-133.4558 892.1838,-144 869.8162,-144 854,-133.4558 854,-118.5442 869.8162,-108 892.1838,-108 908,-118.5442"/>
<text text-anchor="middle" x="881" y="-122.3" font-family="Times,serif" font-size="14.00" fill="#000000">R2</text>
</g>
<!-- ReLU (op#3)\n input0 O2\n output0 R2&#45;&gt;R20 -->
<g id="edge12" class="edge">
<title>ReLU (op#3)\n input0 O2\n output0 R2&#45;&gt;R20</title>
<path fill="none" stroke="#000000" d="M818.2258,-126C826.7933,-126 835.6401,-126 843.8926,-126"/>
<polygon fill="#000000" stroke="#000000" points="843.9621,-129.5001 853.9621,-126 843.9621,-122.5001 843.9621,-129.5001"/>
</g>
<!-- FC (op#4)\n input0 R2\n input1 W3\n input2 B3\n output0 O3 -->
<g id="node14" class="node">
<title>FC (op#4)\n input0 R2\n input1 W3\n input2 B3\n output0 O3</title>
<g id="a_node14"><a xlink:href="javascript:alert('')" xlink:title="FC (op#4)\n input0 R2\n input1 W3\n input2 B3\n output0 O3">
<polygon fill="#0f9d58" stroke="#0f9d58" points="1027,-221.5 944,-221.5 944,-138.5 1027,-138.5 1027,-221.5"/>
<text text-anchor="middle" x="985.5" y="-206.3" font-family="Times,serif" font-size="14.00" fill="#ffffff">FC (op#4)</text>
<text text-anchor="middle" x="985.5" y="-191.3" font-family="Times,serif" font-size="14.00" fill="#ffffff"> input0 R2</text>
<text text-anchor="middle" x="985.5" y="-176.3" font-family="Times,serif" font-size="14.00" fill="#ffffff"> input1 W3</text>
<text text-anchor="middle" x="985.5" y="-161.3" font-family="Times,serif" font-size="14.00" fill="#ffffff"> input2 B3</text>
<text text-anchor="middle" x="985.5" y="-146.3" font-family="Times,serif" font-size="14.00" fill="#ffffff"> output0 O3</text>
</a>
</g>
</g>
<!-- R20&#45;&gt;FC (op#4)\n input0 R2\n input1 W3\n input2 B3\n output0 O3 -->
<g id="edge13" class="edge">
<title>R20&#45;&gt;FC (op#4)\n input0 R2\n input1 W3\n input2 B3\n output0 O3</title>
<path fill="none" stroke="#000000" d="M902.6525,-137.1888C911.9926,-142.0153 923.3467,-147.8825 934.6161,-153.7059"/>
<polygon fill="#000000" stroke="#000000" points="933.1049,-156.8646 943.5956,-158.3461 936.3184,-150.6459 933.1049,-156.8646"/>
</g>
<!-- O30 -->
<g id="node15" class="node">
<title>O30</title>
<polygon fill="none" stroke="#000000" points="1117,-172.5442 1117,-187.4558 1101.1838,-198 1078.8162,-198 1063,-187.4558 1063,-172.5442 1078.8162,-162 1101.1838,-162 1117,-172.5442"/>
<text text-anchor="middle" x="1090" y="-176.3" font-family="Times,serif" font-size="14.00" fill="#000000">O3</text>
</g>
<!-- FC (op#4)\n input0 R2\n input1 W3\n input2 B3\n output0 O3&#45;&gt;O30 -->
<g id="edge14" class="edge">
<title>FC (op#4)\n input0 R2\n input1 W3\n input2 B3\n output0 O3&#45;&gt;O30</title>
<path fill="none" stroke="#000000" d="M1027.1014,-180C1035.5857,-180 1044.4611,-180 1052.7808,-180"/>
<polygon fill="#000000" stroke="#000000" points="1052.9507,-183.5001 1062.9506,-180 1052.9506,-176.5001 1052.9507,-183.5001"/>
</g>
<!-- ReLU (op#5)\n input0 O3\n output0 R3 -->
<g id="node18" class="node">
<title>ReLU (op#5)\n input0 O3\n output0 R3</title>
<g id="a_node18"><a xlink:href="javascript:alert('')" xlink:title="ReLU (op#5)\n input0 O3\n output0 R3">
<polygon fill="#0f9d58" stroke="#0f9d58" points="1245,-206.5 1153,-206.5 1153,-153.5 1245,-153.5 1245,-206.5"/>
<text text-anchor="middle" x="1199" y="-191.3" font-family="Times,serif" font-size="14.00" fill="#ffffff">ReLU (op#5)</text>
<text text-anchor="middle" x="1199" y="-176.3" font-family="Times,serif" font-size="14.00" fill="#ffffff"> input0 O3</text>
<text text-anchor="middle" x="1199" y="-161.3" font-family="Times,serif" font-size="14.00" fill="#ffffff"> output0 R3</text>
</a>
</g>
</g>
<!-- O30&#45;&gt;ReLU (op#5)\n input0 O3\n output0 R3 -->
<g id="edge17" class="edge">
<title>O30&#45;&gt;ReLU (op#5)\n input0 O3\n output0 R3</title>
<path fill="none" stroke="#000000" d="M1117.2241,-180C1124.9289,-180 1133.6135,-180 1142.3716,-180"/>
<polygon fill="#000000" stroke="#000000" points="1142.6322,-183.5001 1152.6322,-180 1142.6322,-176.5001 1142.6322,-183.5001"/>
</g>
<!-- W30 -->
<g id="node16" class="node">
<title>W30</title>
<polygon fill="none" stroke="#000000" points="908,-226.5442 908,-241.4558 892.1838,-252 869.8162,-252 854,-241.4558 854,-226.5442 869.8162,-216 892.1838,-216 908,-226.5442"/>
<text text-anchor="middle" x="881" y="-230.3" font-family="Times,serif" font-size="14.00" fill="#000000">W3</text>
</g>
<!-- W30&#45;&gt;FC (op#4)\n input0 R2\n input1 W3\n input2 B3\n output0 O3 -->
<g id="edge15" class="edge">
<title>W30&#45;&gt;FC (op#4)\n input0 R2\n input1 W3\n input2 B3\n output0 O3</title>
<path fill="none" stroke="#000000" d="M902.6525,-222.8112C911.9926,-217.9847 923.3467,-212.1175 934.6161,-206.2941"/>
<polygon fill="#000000" stroke="#000000" points="936.3184,-209.3541 943.5956,-201.6539 933.1049,-203.1354 936.3184,-209.3541"/>
</g>
<!-- B30 -->
<g id="node17" class="node">
<title>B30</title>
<polygon fill="none" stroke="#000000" points="908,-172.5442 908,-187.4558 892.1838,-198 869.8162,-198 854,-187.4558 854,-172.5442 869.8162,-162 892.1838,-162 908,-172.5442"/>
<text text-anchor="middle" x="881" y="-176.3" font-family="Times,serif" font-size="14.00" fill="#000000">B3</text>
</g>
<!-- B30&#45;&gt;FC (op#4)\n input0 R2\n input1 W3\n input2 B3\n output0 O3 -->
<g id="edge16" class="edge">
<title>B30&#45;&gt;FC (op#4)\n input0 R2\n input1 W3\n input2 B3\n output0 O3</title>
<path fill="none" stroke="#000000" d="M908.1833,-180C916.0072,-180 924.8138,-180 933.6069,-180"/>
<polygon fill="#000000" stroke="#000000" points="933.8634,-183.5001 943.8634,-180 933.8633,-176.5001 933.8634,-183.5001"/>
</g>
<!-- R30 -->
<g id="node19" class="node">
<title>R30</title>
<polygon fill="none" stroke="#000000" points="1335,-172.5442 1335,-187.4558 1319.1838,-198 1296.8162,-198 1281,-187.4558 1281,-172.5442 1296.8162,-162 1319.1838,-162 1335,-172.5442"/>
<text text-anchor="middle" x="1308" y="-176.3" font-family="Times,serif" font-size="14.00" fill="#000000">R3</text>
</g>
<!-- ReLU (op#5)\n input0 O3\n output0 R3&#45;&gt;R30 -->
<g id="edge18" class="edge">
<title>ReLU (op#5)\n input0 O3\n output0 R3&#45;&gt;R30</title>
<path fill="none" stroke="#000000" d="M1245.2258,-180C1253.7933,-180 1262.6401,-180 1270.8926,-180"/>
<polygon fill="#000000" stroke="#000000" points="1270.9621,-183.5001 1280.9621,-180 1270.9621,-176.5001 1270.9621,-183.5001"/>
</g>
<!-- FC (op#6)\n input0 R3\n input1 W4\n input2 B4\n output0 O4 -->
<g id="node20" class="node">
<title>FC (op#6)\n input0 R3\n input1 W4\n input2 B4\n output0 O4</title>
<g id="a_node20"><a xlink:href="javascript:alert('')" xlink:title="FC (op#6)\n input0 R3\n input1 W4\n input2 B4\n output0 O4">
<polygon fill="#0f9d58" stroke="#0f9d58" points="1454,-275.5 1371,-275.5 1371,-192.5 1454,-192.5 1454,-275.5"/>
<text text-anchor="middle" x="1412.5" y="-260.3" font-family="Times,serif" font-size="14.00" fill="#ffffff">FC (op#6)</text>
<text text-anchor="middle" x="1412.5" y="-245.3" font-family="Times,serif" font-size="14.00" fill="#ffffff"> input0 R3</text>
<text text-anchor="middle" x="1412.5" y="-230.3" font-family="Times,serif" font-size="14.00" fill="#ffffff"> input1 W4</text>
<text text-anchor="middle" x="1412.5" y="-215.3" font-family="Times,serif" font-size="14.00" fill="#ffffff"> input2 B4</text>
<text text-anchor="middle" x="1412.5" y="-200.3" font-family="Times,serif" font-size="14.00" fill="#ffffff"> output0 O4</text>
</a>
</g>
</g>
<!-- R30&#45;&gt;FC (op#6)\n input0 R3\n input1 W4\n input2 B4\n output0 O4 -->
<g id="edge19" class="edge">
<title>R30&#45;&gt;FC (op#6)\n input0 R3\n input1 W4\n input2 B4\n output0 O4</title>
<path fill="none" stroke="#000000" d="M1329.6525,-191.1888C1338.9926,-196.0153 1350.3467,-201.8825 1361.6161,-207.7059"/>
<polygon fill="#000000" stroke="#000000" points="1360.1049,-210.8646 1370.5956,-212.3461 1363.3184,-204.6459 1360.1049,-210.8646"/>
</g>
<!-- O40 -->
<g id="node21" class="node">
<title>O40</title>
<polygon fill="none" stroke="#000000" points="1544,-226.5442 1544,-241.4558 1528.1838,-252 1505.8162,-252 1490,-241.4558 1490,-226.5442 1505.8162,-216 1528.1838,-216 1544,-226.5442"/>
<text text-anchor="middle" x="1517" y="-230.3" font-family="Times,serif" font-size="14.00" fill="#000000">O4</text>
</g>
<!-- FC (op#6)\n input0 R3\n input1 W4\n input2 B4\n output0 O4&#45;&gt;O40 -->
<g id="edge20" class="edge">
<title>FC (op#6)\n input0 R3\n input1 W4\n input2 B4\n output0 O4&#45;&gt;O40</title>
<path fill="none" stroke="#000000" d="M1454.1014,-234C1462.5857,-234 1471.4611,-234 1479.7808,-234"/>
<polygon fill="#000000" stroke="#000000" points="1479.9507,-237.5001 1489.9506,-234 1479.9506,-230.5001 1479.9507,-237.5001"/>
</g>
<!-- ReLU (op#7)\n input0 O4\n output0 R4 -->
<g id="node24" class="node">
<title>ReLU (op#7)\n input0 O4\n output0 R4</title>
<g id="a_node24"><a xlink:href="javascript:alert('')" xlink:title="ReLU (op#7)\n input0 O4\n output0 R4">
<polygon fill="#0f9d58" stroke="#0f9d58" points="1672,-260.5 1580,-260.5 1580,-207.5 1672,-207.5 1672,-260.5"/>
<text text-anchor="middle" x="1626" y="-245.3" font-family="Times,serif" font-size="14.00" fill="#ffffff">ReLU (op#7)</text>
<text text-anchor="middle" x="1626" y="-230.3" font-family="Times,serif" font-size="14.00" fill="#ffffff"> input0 O4</text>
<text text-anchor="middle" x="1626" y="-215.3" font-family="Times,serif" font-size="14.00" fill="#ffffff"> output0 R4</text>
</a>
</g>
</g>
<!-- O40&#45;&gt;ReLU (op#7)\n input0 O4\n output0 R4 -->
<g id="edge23" class="edge">
<title>O40&#45;&gt;ReLU (op#7)\n input0 O4\n output0 R4</title>
<path fill="none" stroke="#000000" d="M1544.2241,-234C1551.9289,-234 1560.6135,-234 1569.3716,-234"/>
<polygon fill="#000000" stroke="#000000" points="1569.6322,-237.5001 1579.6322,-234 1569.6322,-230.5001 1569.6322,-237.5001"/>
</g>
<!-- W40 -->
<g id="node22" class="node">
<title>W40</title>
<polygon fill="none" stroke="#000000" points="1335,-280.5442 1335,-295.4558 1319.1838,-306 1296.8162,-306 1281,-295.4558 1281,-280.5442 1296.8162,-270 1319.1838,-270 1335,-280.5442"/>
<text text-anchor="middle" x="1308" y="-284.3" font-family="Times,serif" font-size="14.00" fill="#000000">W4</text>
</g>
<!-- W40&#45;&gt;FC (op#6)\n input0 R3\n input1 W4\n input2 B4\n output0 O4 -->
<g id="edge21" class="edge">
<title>W40&#45;&gt;FC (op#6)\n input0 R3\n input1 W4\n input2 B4\n output0 O4</title>
<path fill="none" stroke="#000000" d="M1329.6525,-276.8112C1338.9926,-271.9847 1350.3467,-266.1175 1361.6161,-260.2941"/>
<polygon fill="#000000" stroke="#000000" points="1363.3184,-263.3541 1370.5956,-255.6539 1360.1049,-257.1354 1363.3184,-263.3541"/>
</g>
<!-- B40 -->
<g id="node23" class="node">
<title>B40</title>
<polygon fill="none" stroke="#000000" points="1335,-226.5442 1335,-241.4558 1319.1838,-252 1296.8162,-252 1281,-241.4558 1281,-226.5442 1296.8162,-216 1319.1838,-216 1335,-226.5442"/>
<text text-anchor="middle" x="1308" y="-230.3" font-family="Times,serif" font-size="14.00" fill="#000000">B4</text>
</g>
<!-- B40&#45;&gt;FC (op#6)\n input0 R3\n input1 W4\n input2 B4\n output0 O4 -->
<g id="edge22" class="edge">
<title>B40&#45;&gt;FC (op#6)\n input0 R3\n input1 W4\n input2 B4\n output0 O4</title>
<path fill="none" stroke="#000000" d="M1335.1833,-234C1343.0072,-234 1351.8138,-234 1360.6069,-234"/>
<polygon fill="#000000" stroke="#000000" points="1360.8634,-237.5001 1370.8634,-234 1360.8633,-230.5001 1360.8634,-237.5001"/>
</g>
<!-- R40 -->
<g id="node25" class="node">
<title>R40</title>
<polygon fill="none" stroke="#000000" points="1762,-226.5442 1762,-241.4558 1746.1838,-252 1723.8162,-252 1708,-241.4558 1708,-226.5442 1723.8162,-216 1746.1838,-216 1762,-226.5442"/>
<text text-anchor="middle" x="1735" y="-230.3" font-family="Times,serif" font-size="14.00" fill="#000000">R4</text>
</g>
<!-- ReLU (op#7)\n input0 O4\n output0 R4&#45;&gt;R40 -->
<g id="edge24" class="edge">
<title>ReLU (op#7)\n input0 O4\n output0 R4&#45;&gt;R40</title>
<path fill="none" stroke="#000000" d="M1672.2258,-234C1680.7933,-234 1689.6401,-234 1697.8926,-234"/>
<polygon fill="#000000" stroke="#000000" points="1697.9621,-237.5001 1707.9621,-234 1697.9621,-230.5001 1697.9621,-237.5001"/>
</g>
<!-- FC (op#8)\n input0 R4\n input1 W5\n input2 B5\n output0 O5 -->
<g id="node26" class="node">
<title>FC (op#8)\n input0 R4\n input1 W5\n input2 B5\n output0 O5</title>
<g id="a_node26"><a xlink:href="javascript:alert('')" xlink:title="FC (op#8)\n input0 R4\n input1 W5\n input2 B5\n output0 O5">
<polygon fill="#0f9d58" stroke="#0f9d58" points="1881,-329.5 1798,-329.5 1798,-246.5 1881,-246.5 1881,-329.5"/>
<text text-anchor="middle" x="1839.5" y="-314.3" font-family="Times,serif" font-size="14.00" fill="#ffffff">FC (op#8)</text>
<text text-anchor="middle" x="1839.5" y="-299.3" font-family="Times,serif" font-size="14.00" fill="#ffffff"> input0 R4</text>
<text text-anchor="middle" x="1839.5" y="-284.3" font-family="Times,serif" font-size="14.00" fill="#ffffff"> input1 W5</text>
<text text-anchor="middle" x="1839.5" y="-269.3" font-family="Times,serif" font-size="14.00" fill="#ffffff"> input2 B5</text>
<text text-anchor="middle" x="1839.5" y="-254.3" font-family="Times,serif" font-size="14.00" fill="#ffffff"> output0 O5</text>
</a>
</g>
</g>
<!-- R40&#45;&gt;FC (op#8)\n input0 R4\n input1 W5\n input2 B5\n output0 O5 -->
<g id="edge25" class="edge">
<title>R40&#45;&gt;FC (op#8)\n input0 R4\n input1 W5\n input2 B5\n output0 O5</title>
<path fill="none" stroke="#000000" d="M1756.6525,-245.1888C1765.9926,-250.0153 1777.3467,-255.8825 1788.6161,-261.7059"/>
<polygon fill="#000000" stroke="#000000" points="1787.1049,-264.8646 1797.5956,-266.3461 1790.3184,-258.6459 1787.1049,-264.8646"/>
</g>
<!-- O50 -->
<g id="node27" class="node">
<title>O50</title>
<polygon fill="none" stroke="#000000" points="1971,-280.5442 1971,-295.4558 1955.1838,-306 1932.8162,-306 1917,-295.4558 1917,-280.5442 1932.8162,-270 1955.1838,-270 1971,-280.5442"/>
<text text-anchor="middle" x="1944" y="-284.3" font-family="Times,serif" font-size="14.00" fill="#000000">O5</text>
</g>
<!-- FC (op#8)\n input0 R4\n input1 W5\n input2 B5\n output0 O5&#45;&gt;O50 -->
<g id="edge26" class="edge">
<title>FC (op#8)\n input0 R4\n input1 W5\n input2 B5\n output0 O5&#45;&gt;O50</title>
<path fill="none" stroke="#000000" d="M1881.1014,-288C1889.5857,-288 1898.4611,-288 1906.7808,-288"/>
<polygon fill="#000000" stroke="#000000" points="1906.9507,-291.5001 1916.9506,-288 1906.9506,-284.5001 1906.9507,-291.5001"/>
</g>
<!-- ReLU (op#9)\n input0 O5\n output0 R5 -->
<g id="node30" class="node">
<title>ReLU (op#9)\n input0 O5\n output0 R5</title>
<g id="a_node30"><a xlink:href="javascript:alert('')" xlink:title="ReLU (op#9)\n input0 O5\n output0 R5">
<polygon fill="#0f9d58" stroke="#0f9d58" points="2099,-314.5 2007,-314.5 2007,-261.5 2099,-261.5 2099,-314.5"/>
<text text-anchor="middle" x="2053" y="-299.3" font-family="Times,serif" font-size="14.00" fill="#ffffff">ReLU (op#9)</text>
<text text-anchor="middle" x="2053" y="-284.3" font-family="Times,serif" font-size="14.00" fill="#ffffff"> input0 O5</text>
<text text-anchor="middle" x="2053" y="-269.3" font-family="Times,serif" font-size="14.00" fill="#ffffff"> output0 R5</text>
</a>
</g>
</g>
<!-- O50&#45;&gt;ReLU (op#9)\n input0 O5\n output0 R5 -->
<g id="edge29" class="edge">
<title>O50&#45;&gt;ReLU (op#9)\n input0 O5\n output0 R5</title>
<path fill="none" stroke="#000000" d="M1971.2241,-288C1978.9289,-288 1987.6135,-288 1996.3716,-288"/>
<polygon fill="#000000" stroke="#000000" points="1996.6322,-291.5001 2006.6322,-288 1996.6322,-284.5001 1996.6322,-291.5001"/>
</g>
<!-- W50 -->
<g id="node28" class="node">
<title>W50</title>
<polygon fill="none" stroke="#000000" points="1762,-334.5442 1762,-349.4558 1746.1838,-360 1723.8162,-360 1708,-349.4558 1708,-334.5442 1723.8162,-324 1746.1838,-324 1762,-334.5442"/>
<text text-anchor="middle" x="1735" y="-338.3" font-family="Times,serif" font-size="14.00" fill="#000000">W5</text>
</g>
<!-- W50&#45;&gt;FC (op#8)\n input0 R4\n input1 W5\n input2 B5\n output0 O5 -->
<g id="edge27" class="edge">
<title>W50&#45;&gt;FC (op#8)\n input0 R4\n input1 W5\n input2 B5\n output0 O5</title>
<path fill="none" stroke="#000000" d="M1756.6525,-330.8112C1765.9926,-325.9847 1777.3467,-320.1175 1788.6161,-314.2941"/>
<polygon fill="#000000" stroke="#000000" points="1790.3184,-317.3541 1797.5956,-309.6539 1787.1049,-311.1354 1790.3184,-317.3541"/>
</g>
<!-- B50 -->
<g id="node29" class="node">
<title>B50</title>
<polygon fill="none" stroke="#000000" points="1762,-280.5442 1762,-295.4558 1746.1838,-306 1723.8162,-306 1708,-295.4558 1708,-280.5442 1723.8162,-270 1746.1838,-270 1762,-280.5442"/>
<text text-anchor="middle" x="1735" y="-284.3" font-family="Times,serif" font-size="14.00" fill="#000000">B5</text>
</g>
<!-- B50&#45;&gt;FC (op#8)\n input0 R4\n input1 W5\n input2 B5\n output0 O5 -->
<g id="edge28" class="edge">
<title>B50&#45;&gt;FC (op#8)\n input0 R4\n input1 W5\n input2 B5\n output0 O5</title>
<path fill="none" stroke="#000000" d="M1762.1833,-288C1770.0072,-288 1778.8138,-288 1787.6069,-288"/>
<polygon fill="#000000" stroke="#000000" points="1787.8634,-291.5001 1797.8634,-288 1787.8633,-284.5001 1787.8634,-291.5001"/>
</g>
<!-- R50 -->
<g id="node31" class="node">
<title>R50</title>
<polygon fill="none" stroke="#000000" points="2189,-280.5442 2189,-295.4558 2173.1838,-306 2150.8162,-306 2135,-295.4558 2135,-280.5442 2150.8162,-270 2173.1838,-270 2189,-280.5442"/>
<text text-anchor="middle" x="2162" y="-284.3" font-family="Times,serif" font-size="14.00" fill="#000000">R5</text>
</g>
<!-- ReLU (op#9)\n input0 O5\n output0 R5&#45;&gt;R50 -->
<g id="edge30" class="edge">
<title>ReLU (op#9)\n input0 O5\n output0 R5&#45;&gt;R50</title>
<path fill="none" stroke="#000000" d="M2099.2258,-288C2107.7933,-288 2116.6401,-288 2124.8926,-288"/>
<polygon fill="#000000" stroke="#000000" points="2124.9621,-291.5001 2134.9621,-288 2124.9621,-284.5001 2124.9621,-291.5001"/>
</g>
<!-- FC (op#10)\n input0 R5\n input1 W6\n input2 B6\n output0 O6 -->
<g id="node32" class="node">
<title>FC (op#10)\n input0 R5\n input1 W6\n input2 B6\n output0 O6</title>
<g id="a_node32"><a xlink:href="javascript:alert('')" xlink:title="FC (op#10)\n input0 R5\n input1 W6\n input2 B6\n output0 O6">
<polygon fill="#0f9d58" stroke="#0f9d58" points="2308,-383.5 2225,-383.5 2225,-300.5 2308,-300.5 2308,-383.5"/>
<text text-anchor="middle" x="2266.5" y="-368.3" font-family="Times,serif" font-size="14.00" fill="#ffffff">FC (op#10)</text>
<text text-anchor="middle" x="2266.5" y="-353.3" font-family="Times,serif" font-size="14.00" fill="#ffffff"> input0 R5</text>
<text text-anchor="middle" x="2266.5" y="-338.3" font-family="Times,serif" font-size="14.00" fill="#ffffff"> input1 W6</text>
<text text-anchor="middle" x="2266.5" y="-323.3" font-family="Times,serif" font-size="14.00" fill="#ffffff"> input2 B6</text>
<text text-anchor="middle" x="2266.5" y="-308.3" font-family="Times,serif" font-size="14.00" fill="#ffffff"> output0 O6</text>
</a>
</g>
</g>
<!-- R50&#45;&gt;FC (op#10)\n input0 R5\n input1 W6\n input2 B6\n output0 O6 -->
<g id="edge31" class="edge">
<title>R50&#45;&gt;FC (op#10)\n input0 R5\n input1 W6\n input2 B6\n output0 O6</title>
<path fill="none" stroke="#000000" d="M2183.6525,-299.1888C2192.9926,-304.0153 2204.3467,-309.8825 2215.6161,-315.7059"/>
<polygon fill="#000000" stroke="#000000" points="2214.1049,-318.8646 2224.5956,-320.3461 2217.3184,-312.6459 2214.1049,-318.8646"/>
</g>
<!-- O60 -->
<g id="node33" class="node">
<title>O60</title>
<polygon fill="none" stroke="#000000" points="2398,-334.5442 2398,-349.4558 2382.1838,-360 2359.8162,-360 2344,-349.4558 2344,-334.5442 2359.8162,-324 2382.1838,-324 2398,-334.5442"/>
<text text-anchor="middle" x="2371" y="-338.3" font-family="Times,serif" font-size="14.00" fill="#000000">O6</text>
</g>
<!-- FC (op#10)\n input0 R5\n input1 W6\n input2 B6\n output0 O6&#45;&gt;O60 -->
<g id="edge32" class="edge">
<title>FC (op#10)\n input0 R5\n input1 W6\n input2 B6\n output0 O6&#45;&gt;O60</title>
<path fill="none" stroke="#000000" d="M2308.1014,-342C2316.5857,-342 2325.4611,-342 2333.7808,-342"/>
<polygon fill="#000000" stroke="#000000" points="2333.9507,-345.5001 2343.9506,-342 2333.9506,-338.5001 2333.9507,-345.5001"/>
</g>
<!-- ReLU (op#11)\n input0 O6\n output0 R6 -->
<g id="node36" class="node">
<title>ReLU (op#11)\n input0 O6\n output0 R6</title>
<g id="a_node36"><a xlink:href="javascript:alert('')" xlink:title="ReLU (op#11)\n input0 O6\n output0 R6">
<polygon fill="#0f9d58" stroke="#0f9d58" points="2533,-368.5 2434,-368.5 2434,-315.5 2533,-315.5 2533,-368.5"/>
<text text-anchor="middle" x="2483.5" y="-353.3" font-family="Times,serif" font-size="14.00" fill="#ffffff">ReLU (op#11)</text>
<text text-anchor="middle" x="2483.5" y="-338.3" font-family="Times,serif" font-size="14.00" fill="#ffffff"> input0 O6</text>
<text text-anchor="middle" x="2483.5" y="-323.3" font-family="Times,serif" font-size="14.00" fill="#ffffff"> output0 R6</text>
</a>
</g>
</g>
<!-- O60&#45;&gt;ReLU (op#11)\n input0 O6\n output0 R6 -->
<g id="edge35" class="edge">
<title>O60&#45;&gt;ReLU (op#11)\n input0 O6\n output0 R6</title>
<path fill="none" stroke="#000000" d="M2398.2331,-342C2405.9817,-342 2414.7419,-342 2423.6231,-342"/>
<polygon fill="#000000" stroke="#000000" points="2423.6544,-345.5001 2433.6543,-342 2423.6543,-338.5001 2423.6544,-345.5001"/>
</g>
<!-- W60 -->
<g id="node34" class="node">
<title>W60</title>
<polygon fill="none" stroke="#000000" points="2189,-388.5442 2189,-403.4558 2173.1838,-414 2150.8162,-414 2135,-403.4558 2135,-388.5442 2150.8162,-378 2173.1838,-378 2189,-388.5442"/>
<text text-anchor="middle" x="2162" y="-392.3" font-family="Times,serif" font-size="14.00" fill="#000000">W6</text>
</g>
<!-- W60&#45;&gt;FC (op#10)\n input0 R5\n input1 W6\n input2 B6\n output0 O6 -->
<g id="edge33" class="edge">
<title>W60&#45;&gt;FC (op#10)\n input0 R5\n input1 W6\n input2 B6\n output0 O6</title>
<path fill="none" stroke="#000000" d="M2183.6525,-384.8112C2192.9926,-379.9847 2204.3467,-374.1175 2215.6161,-368.2941"/>
<polygon fill="#000000" stroke="#000000" points="2217.3184,-371.3541 2224.5956,-363.6539 2214.1049,-365.1354 2217.3184,-371.3541"/>
</g>
<!-- B60 -->
<g id="node35" class="node">
<title>B60</title>
<polygon fill="none" stroke="#000000" points="2189,-334.5442 2189,-349.4558 2173.1838,-360 2150.8162,-360 2135,-349.4558 2135,-334.5442 2150.8162,-324 2173.1838,-324 2189,-334.5442"/>
<text text-anchor="middle" x="2162" y="-338.3" font-family="Times,serif" font-size="14.00" fill="#000000">B6</text>
</g>
<!-- B60&#45;&gt;FC (op#10)\n input0 R5\n input1 W6\n input2 B6\n output0 O6 -->
<g id="edge34" class="edge">
<title>B60&#45;&gt;FC (op#10)\n input0 R5\n input1 W6\n input2 B6\n output0 O6</title>
<path fill="none" stroke="#000000" d="M2189.1833,-342C2197.0072,-342 2205.8138,-342 2214.6069,-342"/>
<polygon fill="#000000" stroke="#000000" points="2214.8634,-345.5001 2224.8634,-342 2214.8633,-338.5001 2214.8634,-345.5001"/>
</g>
<!-- R60 -->
<g id="node37" class="node">
<title>R60</title>
<polygon fill="none" stroke="#000000" points="2623,-334.5442 2623,-349.4558 2607.1838,-360 2584.8162,-360 2569,-349.4558 2569,-334.5442 2584.8162,-324 2607.1838,-324 2623,-334.5442"/>
<text text-anchor="middle" x="2596" y="-338.3" font-family="Times,serif" font-size="14.00" fill="#000000">R6</text>
</g>
<!-- ReLU (op#11)\n input0 O6\n output0 R6&#45;&gt;R60 -->
<g id="edge36" class="edge">
<title>ReLU (op#11)\n input0 O6\n output0 R6&#45;&gt;R60</title>
<path fill="none" stroke="#000000" d="M2533.1716,-342C2541.7801,-342 2550.5971,-342 2558.8009,-342"/>
<polygon fill="#000000" stroke="#000000" points="2558.8028,-345.5001 2568.8028,-342 2558.8027,-338.5001 2558.8028,-345.5001"/>
</g>
<!-- FC (op#12)\n input0 R6\n input1 W7\n input2 B7\n output0 O7 -->
<g id="node38" class="node">
<title>FC (op#12)\n input0 R6\n input1 W7\n input2 B7\n output0 O7</title>
<g id="a_node38"><a xlink:href="javascript:alert('')" xlink:title="FC (op#12)\n input0 R6\n input1 W7\n input2 B7\n output0 O7">
<polygon fill="#0f9d58" stroke="#0f9d58" points="2742,-437.5 2659,-437.5 2659,-354.5 2742,-354.5 2742,-437.5"/>
<text text-anchor="middle" x="2700.5" y="-422.3" font-family="Times,serif" font-size="14.00" fill="#ffffff">FC (op#12)</text>
<text text-anchor="middle" x="2700.5" y="-407.3" font-family="Times,serif" font-size="14.00" fill="#ffffff"> input0 R6</text>
<text text-anchor="middle" x="2700.5" y="-392.3" font-family="Times,serif" font-size="14.00" fill="#ffffff"> input1 W7</text>
<text text-anchor="middle" x="2700.5" y="-377.3" font-family="Times,serif" font-size="14.00" fill="#ffffff"> input2 B7</text>
<text text-anchor="middle" x="2700.5" y="-362.3" font-family="Times,serif" font-size="14.00" fill="#ffffff"> output0 O7</text>
</a>
</g>
</g>
<!-- R60&#45;&gt;FC (op#12)\n input0 R6\n input1 W7\n input2 B7\n output0 O7 -->
<g id="edge37" class="edge">
<title>R60&#45;&gt;FC (op#12)\n input0 R6\n input1 W7\n input2 B7\n output0 O7</title>
<path fill="none" stroke="#000000" d="M2617.6525,-353.1888C2626.9926,-358.0153 2638.3467,-363.8825 2649.6161,-369.7059"/>
<polygon fill="#000000" stroke="#000000" points="2648.1049,-372.8646 2658.5956,-374.3461 2651.3184,-366.6459 2648.1049,-372.8646"/>
</g>
<!-- O70 -->
<g id="node39" class="node">
<title>O70</title>
<polygon fill="none" stroke="#000000" points="2832,-388.5442 2832,-403.4558 2816.1838,-414 2793.8162,-414 2778,-403.4558 2778,-388.5442 2793.8162,-378 2816.1838,-378 2832,-388.5442"/>
<text text-anchor="middle" x="2805" y="-392.3" font-family="Times,serif" font-size="14.00" fill="#000000">O7</text>
</g>
<!-- FC (op#12)\n input0 R6\n input1 W7\n input2 B7\n output0 O7&#45;&gt;O70 -->
<g id="edge38" class="edge">
<title>FC (op#12)\n input0 R6\n input1 W7\n input2 B7\n output0 O7&#45;&gt;O70</title>
<path fill="none" stroke="#000000" d="M2742.1014,-396C2750.5857,-396 2759.4611,-396 2767.7808,-396"/>
<polygon fill="#000000" stroke="#000000" points="2767.9507,-399.5001 2777.9506,-396 2767.9506,-392.5001 2767.9507,-399.5001"/>
</g>
<!-- W70 -->
<g id="node40" class="node">
<title>W70</title>
<polygon fill="none" stroke="#000000" points="2623,-442.5442 2623,-457.4558 2607.1838,-468 2584.8162,-468 2569,-457.4558 2569,-442.5442 2584.8162,-432 2607.1838,-432 2623,-442.5442"/>
<text text-anchor="middle" x="2596" y="-446.3" font-family="Times,serif" font-size="14.00" fill="#000000">W7</text>
</g>
<!-- W70&#45;&gt;FC (op#12)\n input0 R6\n input1 W7\n input2 B7\n output0 O7 -->
<g id="edge39" class="edge">
<title>W70&#45;&gt;FC (op#12)\n input0 R6\n input1 W7\n input2 B7\n output0 O7</title>
<path fill="none" stroke="#000000" d="M2617.6525,-438.8112C2626.9926,-433.9847 2638.3467,-428.1175 2649.6161,-422.2941"/>
<polygon fill="#000000" stroke="#000000" points="2651.3184,-425.3541 2658.5956,-417.6539 2648.1049,-419.1354 2651.3184,-425.3541"/>
</g>
<!-- B70 -->
<g id="node41" class="node">
<title>B70</title>
<polygon fill="none" stroke="#000000" points="2623,-388.5442 2623,-403.4558 2607.1838,-414 2584.8162,-414 2569,-403.4558 2569,-388.5442 2584.8162,-378 2607.1838,-378 2623,-388.5442"/>
<text text-anchor="middle" x="2596" y="-392.3" font-family="Times,serif" font-size="14.00" fill="#000000">B7</text>
</g>
<!-- B70&#45;&gt;FC (op#12)\n input0 R6\n input1 W7\n input2 B7\n output0 O7 -->
<g id="edge40" class="edge">
<title>B70&#45;&gt;FC (op#12)\n input0 R6\n input1 W7\n input2 B7\n output0 O7</title>
<path fill="none" stroke="#000000" d="M2623.1833,-396C2631.0072,-396 2639.8138,-396 2648.6069,-396"/>
<polygon fill="#000000" stroke="#000000" points="2648.8634,-399.5001 2658.8634,-396 2648.8633,-392.5001 2648.8634,-399.5001"/>
</g>
</g>
</svg>
